<?xml version="1.0" encoding="UTF-8" standalone="no"?><!-- Generator: Gravit.io --><svg xmlns="http://www.w3.org/2000/svg" xmlns:xlink="http://www.w3.org/1999/xlink" style="isolation:isolate" viewBox="0 0 64 64" width="64pt" height="64pt"><defs><clipPath id="_clipPath_w56mFZl8vLWmJX8pU6ypYdvDjV09D5JP"><rect width="64" height="64"/></clipPath></defs><g clip-path="url(#_clipPath_w56mFZl8vLWmJX8pU6ypYdvDjV09D5JP)"><defs><mask id="_mask_og9ozvGJTYFfYlGStGk49dgJtL7GqBYv"><path d="M 24.402 5.639 L 39.994 5.639 C 53.197 5.639 63.916 16.358 63.916 29.56 L 63.916 37.399 C 63.916 50.601 53.197 61.32 39.994 61.32 L 24.402 61.32 C 11.199 61.32 0.481 50.601 0.481 37.399 L 0.481 29.56 C 0.481 16.358 11.199 5.639 24.402 5.639 Z" style="stroke:black;fill:white;stroke-miterlimit:10;"/></mask><mask id="_mask_J2i2tSyLwRbEpaikzemKV48OMZc67C6e"><path d="M 24.402 5.639 L 39.994 5.639 C 53.197 5.639 63.916 16.358 63.916 29.56 L 63.916 37.399 C 63.916 50.601 53.197 61.32 39.994 61.32 L 24.402 61.32 C 11.199 61.32 0.481 50.601 0.481 37.399 L 0.481 29.56 C 0.481 16.358 11.199 5.639 24.402 5.639 Z" style="stroke:black;fill:white;stroke-miterlimit:10;"/></mask></defs><g mask="url(#_mask_J2i2tSyLwRbEpaikzemKV48OMZc67C6e)"><g mask="url(#_mask_og9ozvGJTYFfYlGStGk49dgJtL7GqBYv)"/></g><g mask="url(#_mask_og9ozvGJTYFfYlGStGk49dgJtL7GqBYv)"><use xlink:href="#img_QdIDP6Wgv8MBtVvC2Kwup57FcAlUcwI9" transform="matrix(0.176,0,0,0.177,0,5.399)" preserveAspectRatio="none" style=""/></g><g><g style="mix-blend-mode:normal;" opacity="0.94"><g clip-path="url(#_clipPath_m9VawQqK7lv8iCRZJ3vJL6Rowc4qU9RK)"><text transform="matrix(1,0,0,1,37.623,49.235)" style="font-family:'Bubblegum Sans';font-weight:400;font-size:36px;font-style:normal;fill:#FF9900;stroke:#000000;stroke-width:1;">J</text></g><defs><clipPath id="_clipPath_m9VawQqK7lv8iCRZJ3vJL6Rowc4qU9RK"><rect x="0" y="0" width="20.815" height="33.041" transform="matrix(1,0,0,1,34.623,15.563)"/></clipPath></defs></g><g><g><path d=" M 51.557 12.614 L 52.753 12.993 L 53.634 13.561 L 54.389 14.571 L 55.082 15.708 L 55.334 17.161 L 55.145 17.982 L 54.389 19.055 L 53.508 20.318 L 54.327 22.213 L 56.782 21.518 L 57.726 21.455 L 58.67 21.834 L 59.552 22.402 L 60.244 23.413 L 60.433 24.486 L 60.118 26.002 L 59.866 26.507 L 61.818 28.086 L 61.528 28.743 L 62.178 29.582 L 62.674 30.546 L 62.89 31.509 L 63.076 32.596 L 62.921 33.56 L 62.705 34.678 L 62.271 35.859 L 61.806 36.915 L 61.063 37.848 L 60.165 38.283 L 59.112 38.407 L 58.12 38.158 L 57.253 38.065 L 56.819 38.252 L 56.819 38.624 L 56.943 38.966 L 57.47 39.339 L 57.996 39.898 L 58.337 40.489 L 58.43 41.234 L 58.027 41.98 L 57.532 42.571 L 56.696 42.788 L 56.014 43.068 L 55.147 43.254 L 54.404 43.658 L 53.288 45.585 L 54.682 45.678 L 55.488 45.833 L 56.974 46.082 L 57.191 46.517 L 57.315 46.983 L 57.067 47.915 L 56.758 48.661 L 56.014 49.593 L 55.302 50.245 L 54.342 50.494 L 53.536 50.276 L 52.638 50.028 L 51.833 50.09 L 51.833 50.37 L 52.204 50.649 L 52.545 51.053 L 52.576 51.519 L 52.483 52.079 L 51.864 52.607 L 50.841 53.104 L 49.726 53.788 L 48.735 54.347 L 47.93 54.658 L 47.403 54.658 L 46.908 54.285 L 46.567 53.756 L 44.74 54.751 L 45.204 55.061 L 45.328 55.434 L 45.328 56.118 L 45.08 56.677 L 44.492 56.926 L 43.748 57.081 L 42.293 57.392 L 42.231 57.734 L 41.735 58.075 L 41.209 58.573 L 40.434 59.008 L 39.722 59.039 L 39.133 59.38 L 37.12 60.095 L 33.93 58.231 L 33.558 58.883 L 32.846 59.412 L 31.885 59.878 L 30.894 60.188 L 29.934 60.095 L 29.005 59.598 L 28.602 58.728 L 28.54 58.231 L 25.307 57.279 L 23.844 56.93 L 22.52 56.487 L 21.846 56.58 L 21.172 56.813 L 20.684 57.07 L 20.011 57.163 L 19.43 57.116 L 18.872 56.72 L 18.454 56.137 L 18.315 55.438 L 18.361 54.879 L 18.57 54.553 L 18.454 53.993 L 17.641 53.574 L 16.666 53.318 L 16.433 53.83 L 16.154 54.413 L 15.643 54.693 L 15.063 54.739 L 14.83 54.366 L 14.714 54.087 L 14.482 53.644 L 14.064 53.178 L 13.483 52.805 L 13.042 52.642 L 12.484 52.455 L 11.973 52.129 L 11.601 51.57 L 11.601 50.917 L 11.903 50.498 L 12.252 50.172 L 12.809 49.938 L 10.997 47.771 L 10.509 48.097 L 10.277 48.331 L 9.813 48.96 L 9.209 49.822 L 8.372 50.335 L 8.117 50.125 L 7.977 49.845 L 7.908 49.519 L 7.861 49.03 L 7.745 48.494 L 7.559 47.958 L 6.862 47.352 L 6.491 46.956 L 5.863 46.583 L 5.283 46.14 L 4.771 45.767 L 4.307 45.161 L 3.865 44.555 L 3.54 43.833 L 3.424 43.017 L 3.424 42.388 L 3.424 41.852 L 3.54 41.246 L 3.68 40.85 L 3.865 40.5 L 4.121 40.151 L 4.377 39.871 L 4.586 39.545 L 4.795 39.312 L 5.19 39.102 L 5.561 38.986 L 1.473 35.84 L 4.469 32.577 L 3.889 32.577 L 3.424 32.577 L 2.96 32.484 L 2.495 32.297 L 1.914 32.041 L 1.333 31.552 L 0.985 31.086 L 0.66 30.503 L 0.474 29.99 L 0.381 29.384 L 0.52 28.802 L 0.613 28.382 L 0.869 28.033 L 1.171 27.567 L 1.31 27.101 L 1.357 26.821 L 1.496 26.378 L 1.682 25.865 L 1.844 25.423 L 2.077 25.12 L 2.309 24.933 L 2.658 24.77 L 3.099 24.63 L 3.424 24.63 L 3.819 24.654 L 4.4 24.91 L 4.818 25.213 L 5.143 25.539 L 5.631 25.842 L 6.258 26.215 L 6.932 26.448 L 7.629 26.192 L 7.931 25.096 L 7.629 24.724 L 7.42 24.257 L 7.164 23.791 L 7.048 23.325 L 6.862 22.859 L 6.885 22.253 L 7.141 21.694 L 7.582 21.438 L 8.163 21.298 L 8.837 21.205 L 9.232 21.135 L 9.487 20.832 L 9.557 20.482 L 9.418 20.039 L 9.046 19.527 L 8.651 19.177 L 8.349 18.921 L 7.908 18.408 L 7.559 18.059 L 7.327 17.429 L 7.373 16.73 L 7.559 16.264 L 7.977 15.798 L 8.372 15.309 L 8.883 14.819 L 9.348 14.493 L 9.766 14.004 L 10.393 13.608 L 10.811 13.235 L 11.206 12.978 L 11.578 12.699 L 12.066 12.279 L 12.438 12.093 L 13.158 11.86 L 13.901 11.743 L 14.807 11.743 L 15.365 12 L 15.736 12.349 L 15.924 13.52 L 15.852 13.118 L 15.969 13.421 L 16.7 13.046 L 17.412 12.458 L 18.165 11.849 L 19.003 11.346 L 20.007 10.821 L 20.279 10.191 L 20.342 9.897 L 20.907 9.708 L 21.472 9.582 L 22.163 9.645 L 22.561 9.33 L 22.477 8.742 L 22.728 8.406 L 22.896 7.755 L 23.189 7.44 L 23.356 7.272 L 23.419 6.915 L 23.691 6.663 L 23.984 6.453 L 24.361 6.264 L 24.78 6.096 L 25.491 5.886 L 26.14 5.823 L 26.873 5.697 L 27.333 5.76 L 27.982 5.823 Q 28.569 5.9 28.945 5.949 Q 29.32 5.999 29.552 5.781 L 29.949 5.55 L 30.724 5.34 L 31.31 5.802 L 34.261 7.881 L 36.375 8.322 L 36.752 7.944 L 37.631 7.461 L 38.489 7.167 L 39.41 7.209 L 40.247 7.398 L 41.189 7.965 L 41.775 8.784 L 41.817 9.624 L 41.964 10.254 L 42.424 10.317 L 42.759 10.107 L 43.073 9.855 L 43.345 9.519 L 43.366 8.931 L 43.387 8.343 L 43.554 7.86 L 43.847 7.356 L 44.203 6.936 L 45.082 6.705 L 46.024 6.642 L 46.987 6.621 L 48.18 6.684 L 49.101 6.978 L 50.064 7.377 L 50.796 7.923 L 51.759 8.805 L 52.094 9.897 L 52.136 10.632 L 51.989 11.702 L 51.557 12.614 Z " fill="none" vector-effect="non-scaling-stroke" stroke-width="1" stroke="rgb(0,0,0)" stroke-linejoin="miter" stroke-linecap="square" stroke-miterlimit="3"/><path d=" M 34.4 36.734 L 34.4 36.734 L 34.381 37.5 L 34.381 37.578 L 34.381 37.578 Q 34.381 37.676 34.295 37.684 L 34.295 37.684 L 32.686 37.648 L 32.686 37.648 Q 31.006 37.648 29.174 37.726 L 29.174 37.726 L 29.123 37.66 L 29.123 37.66 Q 29.057 37.613 29.057 37.31 L 29.057 37.31 L 29.057 37.31 Q 29.057 37.008 29.065 36.656 L 29.065 36.656 L 29.065 36.629 L 29.065 36.629 Q 29.072 36.309 29.072 36.141 L 29.072 36.141 L 29.072 36.141 Q 29.072 36.078 29.693 35.668 L 29.693 35.668 L 30.369 35.219 L 30.369 35.219 Q 31.072 34.734 31.44 34.402 L 31.44 34.402 L 31.44 34.402 Q 32.08 33.82 32.08 33.355 L 32.08 33.355 L 32.08 33.355 Q 32.08 33.152 31.957 33.033 L 31.957 33.033 L 31.957 33.033 Q 31.834 32.914 31.643 32.914 L 31.643 32.914 L 31.643 32.914 Q 31.451 32.914 31.348 33.006 L 31.348 33.006 L 31.348 33.006 Q 31.244 33.098 31.221 33.211 L 31.221 33.211 L 31.221 33.211 Q 31.147 33.539 31.084 33.574 L 31.084 33.574 L 31.084 33.574 Q 30.963 33.578 30.721 33.578 L 30.721 33.578 L 29.537 33.578 L 29.361 33.574 L 29.209 33.574 L 29.209 33.574 Q 29.076 33.574 29.057 33.539 L 29.057 33.539 L 29.057 33.539 Q 29.088 33.066 29.162 32.844 L 29.162 32.844 L 29.162 32.844 Q 29.264 32.473 29.523 32.197 L 29.523 32.197 L 29.523 32.197 Q 29.783 31.922 30.143 31.769 L 30.143 31.769 L 30.143 31.769 Q 30.842 31.48 31.713 31.48 L 31.713 31.48 L 31.713 31.48 Q 33.084 31.48 33.799 32.098 L 33.799 32.098 L 33.799 32.098 Q 34.334 32.551 34.334 33.297 L 34.334 33.297 L 34.334 33.297 Q 34.334 34.242 33.479 35.027 L 33.479 35.027 L 33.479 35.027 Q 33.057 35.414 32.361 35.867 L 32.361 35.867 L 32.088 36.113 L 33.994 36.078 L 33.994 36.078 Q 34.232 36.078 34.316 36.242 L 34.316 36.242 L 34.316 36.242 Q 34.4 36.406 34.4 36.734 Z " fill="rgb(255,153,0)" vector-effect="non-scaling-stroke" stroke-width="1" stroke="rgb(0,0,0)" stroke-linejoin="miter" stroke-linecap="square" stroke-miterlimit="3"/><mask id="_mask_ahZtEs8XRCJ15xyBDncpZMbBjeMfgsYa"><path d=" M 6.554 33.506 C 6.554 19.568 17.834 8.252 31.729 8.252 C 45.623 8.252 56.903 19.568 56.903 33.506 C 56.903 47.445 45.623 58.761 31.729 58.761 C 17.834 58.761 6.554 47.445 6.554 33.506 Z " fill="white" stroke="none"/></mask><path d=" M 6.554 33.506 C 6.554 19.568 17.834 8.252 31.729 8.252 C 45.623 8.252 56.903 19.568 56.903 33.506 C 56.903 47.445 45.623 58.761 31.729 58.761 C 17.834 58.761 6.554 47.445 6.554 33.506 Z " fill="none"/><path d=" M 6.554 33.506 C 6.554 19.568 17.834 8.252 31.729 8.252 C 45.623 8.252 56.903 19.568 56.903 33.506 C 56.903 47.445 45.623 58.761 31.729 58.761 C 17.834 58.761 6.554 47.445 6.554 33.506 Z " fill="none" mask="url(#_mask_ahZtEs8XRCJ15xyBDncpZMbBjeMfgsYa)" vector-effect="non-scaling-stroke" stroke-width="4" stroke="rgb(0,0,0)" stroke-linejoin="miter" stroke-linecap="square" stroke-miterlimit="3"/></g></g><g clip-path="url(#_clipPath_jf5B8sAzWtUrAgDYRe5XL9a5vQqSOPD6)"><text transform="matrix(1,0,0,1,15.051,37.19)" style="font-family:'Bowlby One';font-weight:400;font-size:20px;font-style:normal;fill:#FF9900;stroke:#000000;stroke-width:1;">H</text></g><defs><clipPath id="_clipPath_jf5B8sAzWtUrAgDYRe5XL9a5vQqSOPD6"><rect x="0" y="0" width="18.832" height="31.328" transform="matrix(1,0,0,1,12.051,11.964)"/></clipPath></defs></g></g><defs><image width="360" height="315" xlink:href="cloud://id=6wIi0gCsI" id="img_QdIDP6Wgv8MBtVvC2Kwup57FcAlUcwI9"/></defs></svg>